<?xml version="1.0" encoding="utf-8"?>
<!-- Generator: Adobe Illustrator 16.0.0, SVG Export Plug-In . SVG Version: 6.00 Build 0)  -->
<!DOCTYPE svg PUBLIC "-//W3C//DTD SVG 1.1//EN" "http://www.w3.org/Graphics/SVG/1.1/DTD/svg11.dtd">
<svg version="1.1" id="Layer_1" xmlns="http://www.w3.org/2000/svg" xmlns:xlink="http://www.w3.org/1999/xlink" x="0px" y="0px"
	 width="80px" height="80px" viewBox="0 0 80 80" enable-background="new 0 0 80 80" xml:space="preserve">
<g>
	<path id="Blue_1_" fill="#3C5A99" d="M75.361,79.75c2.423,0,4.389-1.966,4.389-4.389V4.638c0-2.423-1.966-4.387-4.389-4.387H4.638
		c-2.423,0-4.387,1.964-4.387,4.387v70.724c0,2.423,1.964,4.389,4.387,4.389H75.361z"/>
	<path id="f" fill="#FFFFFF" d="M55.103,79.75V48.964h10.334l1.547-11.999H55.103v-7.66c0-3.474,0.966-5.842,5.946-5.842
		l6.352-0.002v-10.73c-1.098-0.147-4.869-0.474-9.258-0.474c-9.158,0-15.428,5.591-15.428,15.86v8.848H32.354v11.999h10.361V79.75
		H55.103z"/>
</g>
</svg>
