<?xml version="1.0" encoding="utf-8"?>
<!-- Generator: Adobe Illustrator 16.0.0, SVG Export Plug-In . SVG Version: 6.00 Build 0)  -->
<!DOCTYPE svg PUBLIC "-//W3C//DTD SVG 1.1//EN" "http://www.w3.org/Graphics/SVG/1.1/DTD/svg11.dtd">
<svg version="1.1" id="Layer_2" xmlns="http://www.w3.org/2000/svg" xmlns:xlink="http://www.w3.org/1999/xlink" x="0px" y="0px"
	 width="80px" height="80px" viewBox="0 0 80 80" enable-background="new 0 0 80 80" xml:space="preserve">
<path fill="none" d="M8.229,46.564l13.239,10.267c3.115-9.367,11.853-16.337,22.172-16.337c5.818,0,11.041,1.999,15.148,5.926
	l11.365-11.366c-6.862-6.394-15.832-10.32-26.514-10.32C28.15,24.734,14.749,33.613,8.229,46.564"/>
<path fill="none" d="M8.229,46.564l13.239,10.267c3.115-9.367,11.853-16.337,22.172-16.337c5.818,0,11.041,1.999,15.148,5.926
	l11.365-11.366c-6.862-6.394-15.832-10.32-26.514-10.32C28.15,24.734,14.749,33.613,8.229,46.564"/>
<path fill="#527BBE" d="M40.64,33.155v15.328h21.326c-0.918,4.953-3.71,9.15-7.907,11.961v9.941h12.807
	c7.494-6.898,11.814-17.057,11.814-29.123c0-2.812-0.252-5.513-0.719-8.107H40.64z"/>
<path fill="#34A752" d="M5.229,47.889v10.268c6.52,12.95,19.921,21.83,35.411,21.83c10.699,0,19.67-3.551,26.226-9.602
	l-12.807-9.941c-3.549,2.377-8.087,3.781-13.419,3.781c-10.319,0-19.057-6.97-22.172-16.336H5.229z"/>
<path fill="#F7BB17" d="M5.229,22.564c-2.683,5.35-4.215,11.401-4.215,17.796c0,6.394,1.532,12.447,4.215,17.796l13.239-10.268
	c-0.792-2.377-1.243-4.918-1.243-7.529c0-2.612,0.451-5.152,1.243-7.529V22.564H5.229z"/>
<path fill="#E84234" d="M5.229,22.564l13.239,10.267c3.115-9.367,11.853-16.337,22.172-16.337c5.818,0,11.041,1.999,15.148,5.926
	l11.365-11.366C60.291,4.66,51.321,0.734,40.64,0.734C25.15,0.734,11.749,9.613,5.229,22.564"/>
</svg>
