<?xml version="1.0" encoding="utf-8"?>
<!-- Generator: Adobe Illustrator 21.0.0, SVG Export Plug-In . SVG Version: 6.00 Build 0)  -->
<svg version="1.1" id="Layer_1" xmlns="http://www.w3.org/2000/svg" xmlns:xlink="http://www.w3.org/1999/xlink" x="0px" y="0px"
	 width="480px" height="480px" viewBox="-3 -3 52 52" style="enable-background:new 0 0 48 48;" xml:space="preserve">
<style type="text/css">
	.st0{fill:none;}
	.st1{fill:#ffffff;}
	
</style>
<path class="st0 outercircle" d="M24,0c13.255,0,24,10.745,24,24c0,13.255-10.745,24-24,24C10.745,48,0,37.255,0,24C0,10.745,10.745,0,24,0z"/>
<g>
	<g>
		<path class="st1 drop" d="M24.015,10.375c-5.225,0-9.475,4.464-9.475,9.95c0,0.537,0.425,0.973,0.948,0.973
			c0.523,0,0.948-0.436,0.948-0.973c0-4.414,3.4-8.005,7.58-8.005c4.179,0,7.58,3.591,7.58,8.005c0,3.734-5.009,9.494-7.596,12.071
			c-1.466-1.391-5.102-5.082-6.75-8.88c-0.213-0.491-0.774-0.71-1.251-0.493c-0.478,0.218-0.693,0.794-0.48,1.284
			c2.253,5.192,7.654,9.953,7.883,10.152c0.177,0.155,0.396,0.232,0.614,0.232c0.229,0,0.458-0.086,0.639-0.255
			c0.362-0.34,8.835-8.36,8.835-14.112C33.49,14.839,29.239,10.375,24.015,10.375z"/>
	</g>
</g>
<path class="st1 ball" d="M24.013,26.569c-1.448,0-2.863-0.507-3.985-1.428c-0.559-0.459-1.033-1.006-1.409-1.628
	c-0.388-0.641-0.662-1.346-0.814-2.094c-0.219-1.075-0.159-2.16,0.179-3.225c0.114-0.359,0.408-0.581,0.769-0.581l0.008,0
	c0.377,0.004,0.699,0.265,0.767,0.621c0.037,0.193,0.002,0.381-0.034,0.503c-0.306,1.055-0.274,2.093,0.095,3.084
	c0.057,0.154,0.127,0.307,0.203,0.465c0.536-0.482,1.113-0.862,1.719-1.131c0.772-0.343,1.615-0.517,2.504-0.517h0.008
	c1.597,0.002,3.015,0.556,4.22,1.649c0.664-1.32,0.663-2.943-0.001-4.278c-1.203,1.095-2.612,1.65-4.194,1.65
	c-0.09,0-0.182-0.002-0.273-0.005c-1.9-0.075-3.488-0.892-4.72-2.428c-0.271-0.338-0.268-0.728,0.007-1.072
	c1.088-1.359,2.489-2.158,4.162-2.374c0.268-0.035,0.539-0.052,0.807-0.052c2.893,0,5.415,2.002,6.132,4.869
	c0.219,0.876,0.25,1.771,0.093,2.661c-0.151,0.855-0.467,1.662-0.94,2.397c-0.464,0.722-1.053,1.332-1.748,1.813
	c-0.724,0.501-1.529,0.836-2.39,0.995C24.792,26.533,24.4,26.569,24.013,26.569z M20.741,23.603c0.869,0.871,2.02,1.347,3.275,1.347
	c0,0,0,0,0,0c1.256,0,2.455-0.499,3.271-1.349c-0.857-0.859-2.031-1.346-3.27-1.346C22.771,22.256,21.595,22.743,20.741,23.603z
	 M20.741,16.695c0.87,0.871,2.021,1.347,3.275,1.347c0,0,0,0,0,0c1.258,0,2.456-0.499,3.271-1.349
	c-0.858-0.859-2.032-1.346-3.27-1.346C22.769,15.347,21.593,15.834,20.741,16.695z"/>
<path class="st1 base" d="M36.332,37.61H11.698c-0.337,0-0.65-0.184-0.82-0.484c-0.169-0.3-0.17-0.669-0.003-0.971l3.79-6.809
	c0.26-0.466,0.839-0.629,1.293-0.362c0.454,0.267,0.612,0.861,0.353,1.327l-2.98,5.353h21.368l-2.979-5.353
	c-0.259-0.465-0.102-1.06,0.352-1.327c0.454-0.269,1.033-0.104,1.293,0.362l3.79,6.809c0.167,0.302,0.167,0.671-0.003,0.971
	C36.982,37.425,36.669,37.61,36.332,37.61z"/>
</svg>
